<svg xmlns="http://www.w3.org/2000/svg" xmlns:xlink="http://www.w3.org/1999/xlink" viewBox="0 0 24 24" version="1.1">
    <g>
        <path fill='white' d="M 10 0 C 8.699219 0 7.585938 0.800781 7.1875 2 L 3 2 C 1.898438 2 1 2.898438 1 4 L 1 17 C 1 18.101563 1.898438 19 3 19 L 17 19 C 18.101563 19 19 18.101563 19 17 L 19 4 C 19 2.898438 18.101563 2 17 2 L 12.8125 2 C 12.414063 0.800781 11.300781 0 10 0 Z M 10 2 C 10.601563 2 11 2.398438 11 3 C 11 3.601563 10.601563 4 10 4 C 9.398438 4 9 3.601563 9 3 C 9 2.398438 9.398438 2 10 2 Z M 3 4 L 5 4 L 5 6 L 15 6 L 15 4 L 17 4 L 17 17 L 3 17 Z M 11 9 C 9.898438 9 9 9.898438 9 11 L 11 11 Z M 13 9 L 13 11 L 15 11 L 15 9 Z M 21 9 L 21 11 L 23 11 C 23 9.898438 22.101563 9 21 9 Z M 9 13 L 9 15 L 11 15 L 11 13 Z M 21 13 L 21 15 L 23 15 L 23 13 Z M 21 17 L 21 19 L 23 19 L 23 17 Z M 9 21 C 9 22.101563 9.898438 23 11 23 L 11 21 Z M 13 21 L 13 23 L 15 23 L 15 21 Z M 17 21 L 17 23 L 19 23 L 19 21 Z M 21 21 L 21 23 C 22.101563 23 23 22.101563 23 21 Z "></path>
    </g>
</svg>
