<svg version="1.1" id="Capa_1" xmlns="http://www.w3.org/2000/svg" xmlns:xlink="http://www.w3.org/1999/xlink" x="0px" y="0px"
	 viewBox="0 0 100 100" style="enable-background:new 0 0 100 100;" xml:space="preserve">
<g>
	<g>
		<path style="fill:white;" d="M50.001,7.5l-26,24.398h16.5V57.5h19V31.898h16.5L50.001,7.5z M96.698,65.211L80.78,54.5h-9.816
			l17.002,13.043H70.243c-0.508,0-0.969,0.258-1.197,0.664L64.96,79.383H35.038l-4.086-11.176c-0.227-0.406-0.689-0.664-1.197-0.664
			H12.032L29.036,54.5h-9.818L3.302,65.211c-2.369,1.415-3.785,4.676-3.15,7.246l2.807,15.369c0.636,2.57,3.452,4.674,6.257,4.674
			h81.568c2.805,0,5.621-2.104,6.258-4.674l2.805-15.369C100.485,69.887,99.067,66.626,96.698,65.211z"/>
	</g>
</g>
</svg>